# xmcd CD database file
#
# Track frame offsets:
#	150
#	14482
#	35241
#	51700
#	70019
#	87326
#	106371
#	120846
#	140227
#	157578
#	177841
#	190836
#
# Disc length: 2910 seconds
#
# Revision: 0
# Processed by: cddbd v1.5.2PL0 Copyright (c) Steve Scherf et al.
# Submitted via: CDex 1.51
#
DISCID=a30b5c0c
DTITLE=Peter Finc - About Light And Stuff
DYEAR=1900
DGENRE=Blues
TTITLE0=welcome
TTITLE1=I'm all in love
TTITLE2=with my lady
TTITLE3=vicious circle
TTITLE4=stay
TTITLE5=I open my eyes
TTITLE6=will it ever be enough
TTITLE7=light to make my day
TTITLE8=your eyes
TTITLE9=all alone
TTITLE10=don`t push me
TTITLE11=undone
EXTD=
EXTT0=
EXTT1=
EXTT2=
EXTT3=
EXTT4=
EXTT5=
EXTT6=
EXTT7=
EXTT8=
EXTT9=
EXTT10=
EXTT11=
PLAYORDER=
